<?xml version="1.0" encoding="UTF-8" standalone="no"?>
<!-- Generator: Adobe Illustrator 17.1.0, SVG Export Plug-In . SVG Version: 6.00 Build 0)  -->

<svg
   xmlns:dc="http://purl.org/dc/elements/1.1/"
   xmlns:cc="http://creativecommons.org/ns#"
   xmlns:rdf="http://www.w3.org/1999/02/22-rdf-syntax-ns#"
   xmlns:svg="http://www.w3.org/2000/svg"
   xmlns="http://www.w3.org/2000/svg"
   xmlns:sodipodi="http://sodipodi.sourceforge.net/DTD/sodipodi-0.dtd"
   xmlns:inkscape="http://www.inkscape.org/namespaces/inkscape"
   version="1.1"
   id="Capa_1"
   x="0px"
   y="0px"
   viewBox="0 0 465.999 465.999"
   style="enable-background:new 0 0 465.999 465.999;"
   xml:space="preserve"
   sodipodi:docname="logo.svg"
   inkscape:version="0.92.5 (2060ec1f9f, 2020-04-08)"><metadata
   id="metadata248"><rdf:RDF><cc:Work
       rdf:about=""><dc:format>image/svg+xml</dc:format><dc:type
         rdf:resource="http://purl.org/dc/dcmitype/StillImage" /><dc:title></dc:title></cc:Work></rdf:RDF></metadata><defs
   id="defs246" /><sodipodi:namedview
   pagecolor="#ffffff"
   bordercolor="#666666"
   borderopacity="1"
   objecttolerance="10"
   gridtolerance="10"
   guidetolerance="10"
   inkscape:pageopacity="0"
   inkscape:pageshadow="2"
   inkscape:window-width="1366"
   inkscape:window-height="711"
   id="namedview244"
   showgrid="false"
   inkscape:zoom="0.49624571"
   inkscape:cx="232.9995"
   inkscape:cy="232.9995"
   inkscape:window-x="0"
   inkscape:window-y="0"
   inkscape:window-maximized="1"
   inkscape:current-layer="Capa_1" />
<path
   d="M299.458,121.728c4.097-25.741-1.43-48.645-16.428-68.074C254.692,16.945,199.33,2.53,174.015,0.037  c-2.274-0.218-4.532,0.534-6.209,2.083c-1.678,1.548-2.614,3.739-2.573,6.022c0.018,1.039,0.816,45.16,2.147,102.553  c0,0.125,0.003,0.251,0.009,0.376c1.829,78.812,4.66,182.478,7.858,234.053c1.33,21.442,13.049,35.266,31.84,38.257v10.097  c-5.11-0.664-9.899-1.966-14.292-3.924c-1.855-0.826-3.659-1.779-5.361-2.831c-3.76-2.323-8.688-1.158-11.011,2.6  c-2.323,3.759-1.159,8.688,2.6,11.012c2.31,1.428,4.753,2.718,7.26,3.835c6.417,2.859,13.39,4.666,20.803,5.419v10.049  c-7.387-0.663-14.433-2.247-21.023-4.748c-4.133-1.568-8.75,0.51-10.318,4.641c-1.568,4.131,0.51,8.751,4.641,10.318  c8.388,3.183,17.343,5.125,26.7,5.832v22.317c0,4.418,3.582,8,8,8s8-3.582,8-8v-47.658c16.809-2.889,27.462-15.357,31.708-37.184  c7.14-36.708,30.4-163.365,43.197-242.304c0.012-0.07,0.024-0.14,0.034-0.21C298.518,127.6,298.998,124.62,299.458,121.728z   M270.364,63.431c11.523,14.927,16.142,32.505,13.772,52.289c-18.463-11.411-39.24-17.977-61.05-19.268v-38.55c0-4.418-3.582-8-8-8  s-8,3.582-8,8v38.553c-8.106,0.485-16.114,1.683-23.946,3.633c-0.852-37.492-1.456-68.155-1.735-82.854  C204.501,21.324,247.849,34.263,270.364,63.431z M191.216,344.135c-3.106-50.09-5.868-149.703-7.696-227.575  c7.677-2.171,15.561-3.532,23.566-4.078V367.09C197.236,364.62,192.017,357.053,191.216,344.135z M239.088,370.102  c-3.094,15.911-9.119,21.842-16.002,23.897V112.479c21.07,1.421,41.024,8.437,58.337,20.576  C268.511,212.055,246.072,334.195,239.088,370.102z"
   id="path211"
   style="fill:#555753" />
<g
   id="g213">
</g>
<g
   id="g215">
</g>
<g
   id="g217">
</g>
<g
   id="g219">
</g>
<g
   id="g221">
</g>
<g
   id="g223">
</g>
<g
   id="g225">
</g>
<g
   id="g227">
</g>
<g
   id="g229">
</g>
<g
   id="g231">
</g>
<g
   id="g233">
</g>
<g
   id="g235">
</g>
<g
   id="g237">
</g>
<g
   id="g239">
</g>
<g
   id="g241">
</g>
</svg>